<?xml version="1.0" encoding="UTF-8" standalone="no"?>
<!-- Created with Inkscape (http://www.inkscape.org/) -->

<svg
   xmlns:dc="http://purl.org/dc/elements/1.1/"
   xmlns:cc="http://creativecommons.org/ns#"
   xmlns:rdf="http://www.w3.org/1999/02/22-rdf-syntax-ns#"
   xmlns:svg="http://www.w3.org/2000/svg"
   xmlns="http://www.w3.org/2000/svg"
   xmlns:sodipodi="http://sodipodi.sourceforge.net/DTD/sodipodi-0.dtd"
   xmlns:inkscape="http://www.inkscape.org/namespaces/inkscape"
   height="185.79851mm"
   width="234.297mm"
   viewBox="0 0 830.18621 658.34117"
   id="svg2"
   version="1.1"
   inkscape:version="0.91 r13725"
   sodipodi:docname="skater.svg"
   inkscape:export-filename="/home/algot/Documents/runeman.org/clipart/skater.png"
   inkscape:export-xdpi="43.363766"
   inkscape:export-ydpi="43.363766">
  <title
     id="title3183">Figure Skater</title>
  <defs
     id="defs8" />
  <sodipodi:namedview
     pagecolor="#ffffff"
     bordercolor="#666666"
     borderopacity="1"
     objecttolerance="10"
     gridtolerance="10"
     guidetolerance="10"
     inkscape:pageopacity="0"
     inkscape:pageshadow="2"
     inkscape:window-width="1366"
     inkscape:window-height="712"
     id="namedview6"
     showgrid="false"
     inkscape:zoom="0.5"
     inkscape:cx="187.3814"
     inkscape:cy="253.18142"
     inkscape:window-x="0"
     inkscape:window-y="0"
     inkscape:window-maximized="1"
     inkscape:current-layer="svg2"
     fit-margin-top="0"
     fit-margin-left="0"
     fit-margin-right="0"
     fit-margin-bottom="0" />
  <metadata
     id="metadata4">
    <rdf:RDF>
      <cc:Work
         rdf:about="">
        <dc:format>image/svg+xml</dc:format>
        <dc:type
           rdf:resource="http://purl.org/dc/dcmitype/StillImage" />
        <dc:title>Figure Skater</dc:title>
        <dc:date>2017-03-06</dc:date>
        <dc:creator>
          <cc:Agent>
            <dc:title>Algot Runeman</dc:title>
          </cc:Agent>
        </dc:creator>
        <dc:rights>
          <cc:Agent>
            <dc:title>Algot Runeman</dc:title>
          </cc:Agent>
        </dc:rights>
        <dc:publisher>
          <cc:Agent>
            <dc:title>runeman.org</dc:title>
          </cc:Agent>
        </dc:publisher>
        <dc:identifier>skater.svg</dc:identifier>
        <cc:license
           rdf:resource="http://creativecommons.org/publicdomain/zero/1.0/" />
      </cc:Work>
      <cc:License
         rdf:about="http://creativecommons.org/publicdomain/zero/1.0/">
        <cc:permits
           rdf:resource="http://creativecommons.org/ns#Reproduction" />
        <cc:permits
           rdf:resource="http://creativecommons.org/ns#Distribution" />
        <cc:permits
           rdf:resource="http://creativecommons.org/ns#DerivativeWorks" />
      </cc:License>
    </rdf:RDF>
  </metadata>
  <g
     id="g3185"
     transform="translate(419.63166,-254.60648)">
    <path
       sodipodi:nodetypes="scccccccscccccccccccscccccsccccccccscccccccccccssssssccccccccccccccccccccscccscsccccccccccccccccccccccccccccccccccs"
       inkscape:connector-curvature="0"
       id="path3151"
       d="m -414.92343,449.20522 c 1.1238,-6.30107 18.21615,-6.07205 18.21615,-6.07205 l 24.2882,-4.04804 -12.1441,-14.16812 0,-6.07205 8.09607,4.04804 6.07205,3.03602 3.03602,3.03603 c 0,0 6.1661,-1.83421 9.10808,-1.01201 5.32854,1.48918 13.15611,10.12008 13.15611,10.12008 l 20.24016,-1.01201 12.1441,-11.13209 9.10808,-2.02401 11.13209,3.03602 8.09607,8.09607 11.13209,-6.07205 7.08406,0 21.25217,-5.06004 23.2762,-2.02402 0,2.02402 c 0,0 8.35375,-5.55686 13.15611,-6.07205 3.09234,-0.33174 9.10807,2.02401 9.10807,2.02401 l 11.13209,-1.01201 2.02402,-4.04803 16.19213,4.04803 21.25218,-13.1561 c 0,0 7.71414,-6.9987 12.1441,-6.07205 2.57886,0.53944 5.06004,6.07205 5.06004,6.07205 l 8.09607,-12.14411 6.07205,3.03603 12.1441,-7.08406 6.07205,1.01201 9.108075,-4.04803 5.060042,-24.2882 -9.108076,-8.09607 c 0,0 -14.844231,12.14761 -22.264181,9.10807 -4.75467,-1.94773 -6.07205,-14.16811 -6.07205,-14.16811 l -5.06004,-1.01201 0,-6.07205 -3.03603,-4.04804 5.06004,-8.09606 -9.10807,-1.01201 1.012,-5.06004 8.09607,-13.15611 1.01201,-2.02402 -8.09607,-9.10807 -4.04803,-8.09607 c 0,0 1.36522,-9.43391 4.04803,-13.15611 5.09027,-7.06237 13.7248,-10.80675 21.25218,-15.18013 4.17622,-2.42637 8.46462,-4.92399 13.156108,-6.07205 6.88882,-1.68577 14.162097,-0.84329 21.252176,-1.012 4.384129,-0.10432 9.12434,-1.7252 13.156109,0 9.43242,4.03614 15.960169,13.47466 21.252175,22.26418 3.30142,5.48334 6.072051,18.21615 6.072051,18.21615 l 0,9.10808 -11.132092,11.13209 -1.012009,14.16812 -5.060042,0 3.036025,6.07205 13.156109,4.04803 23.276193,0 13.1561086,-7.08406 15.1801254,11.13209 22.264184,12.1441 18.216151,6.07205 18.216151,14.16812 6.07205,8.09607 23.276197,0 8.09606,5.06004 59.7085,22.26418 6.07205,0 14.16811,2.02402 2.02402,-6.07205 c 0,0 12.72305,-4.13487 16.19213,0 3.74285,4.46118 -3.03602,17.20414 -3.03602,17.20414 l 25.30021,12.1441 34.40828,35.4203 c 0,0 13.14031,6.28383 11.1321,11.13209 -1.29093,3.11658 -10.12009,0 -10.12009,0 0,0 16.19214,10.12008 8.09607,12.1441 -8.09607,2.02402 -5.06004,-2.02402 -5.06004,-2.02402 l -23.2762,-22.26418 -12.1441,-7.08406 7.08406,11.13209 -5.06004,5.06004 -17.20414,-26.31221 -7.08406,-7.08406 -12.1441,-4.04804 -59.70849,15.18013 -51.612432,-11.13209 -41.492343,-12.1441 4.048034,23.27619 24.2882,19.22816 12.144101,12.1441 -4.048034,9.10807 -97.152803,30.36026 -9.108076,11.13209 -30.360251,-8.09607 -36.432301,-40.48033 -11.132095,-4.04804 -58.69648,4.04804 -92.09276,0 -39.46833,-5.06005 -27.32423,-22.26418 -23.27619,0 -24.2882,9.10807 -10.12008,0 -22.26419,2.02402 -2.02402,-2.02402 -12.1441,0 -1.012,-3.03602 -5.06005,-5.06004 3.03603,-4.04804 6.07205,-9.10807 c 0,0 -5.43929,-1.92158 -5.06004,-4.04803 z"
       style="fill:#000000;fill-rule:evenodd;stroke:#000000;stroke-width:1px;stroke-linecap:butt;stroke-linejoin:miter;stroke-opacity:1" />
    <path
       sodipodi:nodetypes="ccccccccccccscccsccccccscccccccsccsccccccccccccccccccsccccccccccccccc"
       inkscape:connector-curvature="0"
       id="path3153"
       d="m 73.876953,495.75781 -89.056641,32.38477 3.035157,13.15625 15.1796872,13.15429 -28.3359372,35.42188 -41.492188,61.73242 -18.214843,34.4082 1.011718,12.14454 39.466797,74.88867 24.289063,45.53906 16.1914059,35.41992 -30.3593749,19.22852 c 0,0 -11.91401,-1.89993 -15.179688,2.02344 -4.321588,5.19193 1.011719,20.24023 1.011719,20.24023 l 7.083984,3.03711 -14.167968,6.07227 c 0,0 4.185497,6.91875 7.083984,7.06054 45.1163736,2.20711 129.53711,-0.98828 129.53711,-0.98828 l -2.023438,-9.10937 -18.216797,1.01367 1.011719,-6.07227 6.072266,-26.3125 -17.205079,-32.38476 c 0,0 2.279819,-11.94267 0,-17.20508 -2.940926,-6.78842 -16.191406,-15.17969 -16.191406,-15.17969 L 14.167969,777.0957 -2.0234375,729.53125 l -5.0605469,-7.08398 0,-12.14454 40.4804684,-72.86328 25.300782,-22.26562 c 0,0 151.799624,130.55078 155.847654,130.55078 4.04804,0 97.1543,77.92383 97.1543,77.92383 l 12.14258,25.30078 c 0,0 -2.83807,16.5321 1.01367,23.27539 3.99109,6.98725 20.24023,13.15625 20.24023,13.15625 l 5.0586,12.14453 13.15625,-4.04883 46.55273,-78.93554 -9.10742,-5.06055 -7.08398,7.08398 -6.07227,-4.04883 1.01172,-7.08398 -23.27539,-18.21484 -17.20508,-7.08399 -8.0957,-7.08398 -6.07227,0 -29.34766,-29.34961 -29.34961,-36.43164 -40.48046,-36.43164 -39.4668,-30.36133 -49.58984,-51.61133 -25.29883,-27.32422 c 0,0 -7.81965,-33.53094 -18.2168,-46.55273 -7.12224,-8.92017 -28.335937,-19.22852 -28.335937,-19.22852 z m 307.650387,324.85352 6.07227,11.13281 -15.17969,28.33594 -11.13281,-4.04688 z m -27.32422,41.49414 5.06055,7.08398 -8.09765,13.15625 -5.0586,-3.03711 z m -318.783198,27.32422 -2.023438,10.11914 -28.3359371,0 z"
       style="fill:#000000;fill-rule:evenodd;stroke:#000000;stroke-width:1px;stroke-linecap:butt;stroke-linejoin:miter;stroke-opacity:1" />
  </g>
</svg>
